FFmpeg version SVN-r25716, Copyright (c) 2000-2010 the FFmpeg developers  built on Nov 10 2010 12:23:18 with gcc 4.1.2 20080704 (Red Hat 4.1.2-48)  configuration: --enable-libmp3lame --enable-shared --disable-mmx --arch=x86_64  libavutil     50.33. 0 / 50.33. 0  libavcore      0.12. 1 /  0.12. 1  libavcodec    52.94. 4 / 52.94. 4  libavformat   52.84. 0 / 52.84. 0  libavdevice   52. 2. 2 / 52. 2. 2  libavfilter    1.59. 0 /  1.59. 0  libswscale     0.12. 0 /  0.12. 0[mov,mp4,m4a,3gp,3g2,mj2 @ 0xd7ab4c0] max_analyze_duration reachedSeems stream 0 codec frame rate differs from container frame rate: 1000.00 (1000/1) -> 2.00 (2/1)Input #0, mov,mp4,m4a,3gp,3g2,mj2, from '/RAID10/data/converted_video_files/25572.mov':  Metadata:    major_brand     : qt      minor_version   : 537199360    compatible_brands: qt    Duration: 00:00:29.50, start: 0.000000, bitrate: 114 kb/s    Stream #0.0(eng): Video: mpeg4, yuv420p, 1104x1292 [PAR 1:1 DAR 276:323], 114 kb/s, 2 fps, 2 tbr, 600 tbn, 1k tbc[buffer @ 0xd7bcad0] w:1104 h:1292 pixfmt:yuv420pOutput #0, flv, to '/RAID10/data/converted_video_files/25572.flv':  Metadata:    encoder         : Lavf52.84.0    Stream #0.0(eng): Video: flv, yuv420p, 1104x1292 [PAR 1:1 DAR 276:323], q=2-31, 600 kb/s, 1k tbn, 24 tbcStream mapping:  Stream #0.0 -> #0.0Press [q] to stop encodingframe=   10 fps=  0 q=9.7 size=     237kB time=4.54 bitrate= 426.8kbits/s    frame=   19 fps= 18 q=17.8 size=     352kB time=9.04 bitrate= 319.2kbits/s    frame=   30 fps= 19 q=23.8 size=     541kB time=14.54 bitrate= 304.6kbits/s    frame=   39 fps= 18 q=17.2 size=     702kB time=19.04 bitrate= 301.9kbits/s    frame=   52 fps= 20 q=20.0 size=     899kB time=25.54 bitrate= 288.3kbits/s    frame=   59 fps= 19 q=17.3 Lsize=     999kB time=29.04 bitrate= 281.7kbits/s    video:998kB audio:0kB global headers:0kB muxing overhead 0.112957%